<svg enable-background="new 0 0 1687.9 1704.3" viewBox="0 0 1687.9 1704.3" xmlns="http://www.w3.org/2000/svg"><path d="m843.5 1678.5c-112 0-220.6-21.9-322.9-65.2-98.8-41.8-187.5-101.6-263.7-177.8s-136-164.9-177.8-263.7c-43.1-102.2-65.1-210.8-65.1-322.8s22-220.6 65.2-322.9c41.8-98.7 101.6-187.4 177.8-263.6s164.9-136 263.7-177.8c102.3-43.3 210.9-65.2 322.9-65.2s220.6 21.9 322.9 65.2c98.8 41.8 187.5 101.6 263.7 177.8s136 164.9 177.8 263.7c43.1 102.2 65 210.8 65 322.8s-21.9 220.6-65.2 322.9c-41.8 98.8-101.6 187.5-177.8 263.7s-164.9 136-263.7 177.8c-102.1 43.2-210.8 65.1-322.8 65.1zm0-1495.6c-89.9 0-177.2 17.6-259.3 52.4-79.3 33.6-150.6 81.6-211.7 142.8-61.2 61.2-109.2 132.4-142.8 211.7-34.7 82.1-52.3 169.3-52.3 259.2s17.6 177.2 52.4 259.3c33.6 79.3 81.6 150.6 142.8 211.7 61.2 61.2 132.4 109.2 211.7 142.8 82.1 34.7 169.4 52.4 259.3 52.4s177.2-17.6 259.3-52.4c79.3-33.6 150.6-81.6 211.7-142.8 61.2-61.2 109.2-132.4 142.8-211.7 34.7-82.1 52.4-169.4 52.4-259.3s-17.6-177.2-52.4-259.3c-33.6-79.3-81.6-150.6-142.8-211.7-61.2-61.2-132.4-109.2-211.7-142.8-82.2-34.7-169.4-52.3-259.4-52.3z" fill="#fff"/><path d="m843.5 23.5c56 0 112 5.6 166.4 16.8 53 10.8 105.1 27 154.9 48.1 48.9 20.7 96.1 46.3 140.2 76.1 43.7 29.5 84.8 63.4 122.2 100.8s71.3 78.5 100.8 122.2c29.8 44.1 55.4 91.3 76.1 140.2 21.1 49.8 37.3 101.9 48.1 154.9 11.2 54.4 16.8 110.4 16.8 166.4s-5.6 112-16.8 166.4c-10.8 53-27 105.1-48.1 154.9-20.7 48.9-46.3 96.1-76.1 140.2-29.5 43.7-63.4 84.8-100.8 122.2s-78.5 71.3-122.2 100.8c-44.1 29.8-91.3 55.4-140.2 76.1-49.8 21.1-101.9 37.3-154.9 48.1-54.4 11.1-110.4 16.8-166.4 16.8s-112-5.6-166.4-16.8c-53-10.8-105.1-27-154.9-48.1-48.9-20.7-96.1-46.3-140.2-76.1-43.7-29.5-84.8-63.4-122.2-100.8s-71.3-78.5-100.8-122.2c-29.8-44.1-55.4-91.3-76.1-140.2-21.1-49.8-37.3-101.9-48.1-154.9-11.1-54.4-16.8-110.4-16.8-166.4s5.6-112 16.8-166.4c10.8-53 27-105.1 48.1-154.9 20.7-48.9 46.3-96.1 76.1-140.2 29.5-43.7 63.4-84.8 100.8-122.2 37.4-37.3 78.5-71.3 122.2-100.8 44.1-29.8 91.3-55.4 140.2-76.1 49.8-21.1 102-37.3 155-48.1 54.4-11.1 110.3-16.8 166.3-16.8m0 1495.7c90.5 0 178.2-17.7 260.9-52.7 39.7-16.8 78-37.6 113.8-61.8 35.5-24 68.9-51.5 99.2-81.8s57.9-63.7 81.8-99.2c24.2-35.8 45-74.1 61.8-113.8 34.9-82.6 52.7-170.4 52.7-260.9s-17.7-178.2-52.7-260.8c-16.8-39.7-37.6-78-61.8-113.8-24-35.5-51.5-68.9-81.8-99.2s-63.7-57.9-99.2-81.8c-35.8-24.2-74.1-45-113.8-61.8-82.6-34.9-170.4-52.7-260.9-52.7s-178.2 17.7-260.9 52.7c-39.7 16.8-78 37.6-113.8 61.8-35.5 24-68.9 51.5-99.2 81.8s-57.9 63.7-81.8 99.2c-24.2 35.8-45 74.1-61.8 113.8-34.9 82.6-52.7 170.4-52.7 260.9s17.7 178.2 52.7 260.9c16.8 39.7 37.6 78 61.8 113.8 24 35.5 51.5 68.9 81.8 99.2s63.7 57.9 99.2 81.8c35.8 24.2 74.1 45 113.8 61.8 82.7 34.9 170.5 52.6 260.9 52.6m0-1503.7c-460.3 0-833.5 373.2-833.5 833.5s373.2 833.5 833.5 833.5 833.5-373.1 833.5-833.5-373.1-833.5-833.5-833.5zm0 1495.7c-365.7 0-662.2-296.5-662.2-662.2s296.5-662.2 662.2-662.2 662.2 296.5 662.2 662.2-296.4 662.2-662.2 662.2z"/><path d="m969.8 164-22.4-2.5-5.7-29.5-31.4-3.6-11.6 27.6-21.8-2.5 45.5-100.5 24.7 2.8zm-37.7-87.3h-.3l-14.6 34.6 21.3 2.4z"/><path d="m1123.2 149.9-.1.3c9.8 8.7 13.7 19.5 9.7 31-5.6 15.8-21.8 24.2-42.7 16.8l-35.2-12.5 35.2-98.9 31.9 11.4c20.3 7.2 26 23.4 21.5 36.2-3.1 8.4-10.1 14.7-20.3 15.7zm-42.9 26 10.2 3.6c11.9 4.2 19.5.7 22.3-7.3 3-8.3-2.4-15-12.1-18.5l-11.2-4zm23.4-65.8-7.8 22 10 3.6c7.1 2.5 14.1 1 16.8-6.6s-2.2-13-9-15.5z"/><path d="m1239.3 256.2c11.6 7.7 24.7 7.3 34.8-.9l19.1 12.7c-18.8 17.2-44.7 17.3-64.5 4.3-25.8-17-33.2-49.1-15.7-75.5s49.8-32.1 75.6-15.1c19.8 13.1 29.8 37 21.3 61l-19.1-12.7c3.6-12.5-1.1-24.7-12.8-32.4-16.5-10.9-35.8-5.7-46.9 11.1s-8.3 36.6 8.2 47.5z"/><path d="m1357.7 380.4-24.1-26.8 78.1-70.2 24.1 26.8c23 25.5 20.6 54.7-2.6 75.6s-52.5 20.2-75.5-5.4zm64.3-58.8-9.6-10.7-51.6 46.4 9.6 10.7c12.8 14.3 31 17.7 48.5 1.9 17.3-15.5 15.9-34 3.1-48.3z"/><path d="m1554.6 517.9-27.1-50.5-21.7 11.6 15.8 29.5-15.7 8.4-15.8-29.5-23.5 12.6 27.1 50.5-15.7 8.4-36.9-68.9 92.5-49.6 36.9 68.9z"/><path d="m1557 664.5-40.4 10.3-5.1-20.2 101.7-25.9 18.8 73.7-17.4 4.4-13.6-53.5-26.5 6.7 10 39.2-17.4 4.4z"/><path d="m1593.5 799.9c31.6.5 53.9 25.2 53.4 56.1-.4 23.7-15.1 45.1-40 50.8l.4-22.9c12.5-3.7 20.2-14.2 20.4-28.2.3-19.8-14.5-33.7-34.6-34-21.9-.4-35.3 14-35.6 32.7-.2 14.7 8.3 24.7 17.1 27.7l.4-22.9 17.1.3-.7 44.5-52-.8.3-16.9 14.5.2c-6.1-4.1-16.1-16.2-15.8-34.2.5-30.1 23.5-52.9 55.1-52.4z"/><path d="m1515.3 1036.8 43.3 10.6 9.9-40.5-43.3-10.6 5-20.2 102 25-5 20.2-41.4-10.1-9.9 40.5 41.4 10.1-5 20.2-102-25z"/><path d="m1564.6 1205.9-9.3 18.6-93.9-47 9.3-18.6z"/><path d="m1422 1315-6.2-5.2c-8.7-7.4-18.8-7.7-26.8 1.7-7.9 9.4-6 19.3 2.7 26.7l52.1 44.1-13.5 15.9-53.6-45.4c-15.6-13.2-19-34.2-2.2-54 16.9-19.9 37.7-19.4 53.2-6.2l7.7 6.5z"/><path d="m1281.9 1471.3-4.5 3-4.8 53.2-21.4 14.4 6.8-64.7-64.2-23.2 21.4-14.4 52.8 19.7 4-2.7-25.7-38 17.3-11.7 58.8 87-17.3 11.7z"/><path d="m1122.9 1488.9 38.1 97.8-19.4 7.6-31.6-81.2-41.5 16.2-6.5-16.6z"/><path d="m946.8 1561.6 27.1 48.7-9.4-73.6 20.1-2.6 13.3 104.1-29.2 3.7-30.3-56.2-15.7 62-27.8 3.5-13.3-104.1 20.5-2.6 9.4 73.6 13.4-53.9z"/><path d="m772.2 1542.9 20.4 2.7-13.9 104.1-27.2-3.6-25.8-74-9.3 69.3-20.4-2.7 13.9-104.1 25.1 3.4 27.5 77.2z"/><path d="m522.4 1529.1c12.1-29.2 43.3-40.8 71.5-29.2 28.1 11.6 42.1 41.9 30 71.1s-43.3 40.8-71.5 29.2-42.1-41.8-30-71.1zm20.1 8.3c-7.7 18.6-1.1 37.5 17.2 45.1s36.4-1.2 44-19.8 1.1-37.5-17.2-45.1c-18.3-7.5-36.4 1.3-44 19.8z"/><path d="m450.8 1424.6 16.9 12-60.9 85.5-29-20.6c-20.2-14.4-21.8-34.5-10.8-50 11-15.4 30.9-20.9 51.1-6.5l12.1 8.6zm-50.5 70.9 19.5-27.4-9.5-6.8c-9.3-6.6-19.1-7-25.9 2.5s-2.8 18.2 6.4 24.8z"/><path d="m242.6 1312.8c13.9-12.4 31.1-16.2 47-12.9l1.3-4.4c1.3-4.4.8-7.5-3.9-12.8-3.1-3.5-5.3-5.3-5.3-5.3l13.7-12.2s6.9 6.7 10.6 10.8c7.6 8.5 7.7 16.1 3.9 28.5l-1.1 3.5c4 2.7 7.6 5.9 10.9 9.6 20.2 22.8 19.6 56.1-4.1 77.1-23.6 21-56.8 17.8-77.1-4.9-20.2-22.7-19.6-56 4.1-77zm60.1 15-5.2 16.7-19.6-6 5.9-19.1c-9.1-.7-18.6 2.5-26.7 9.7-15 13.4-17.4 33.3-4.2 48.1s33.2 14.8 48.3 1.4c15-13.4 17.4-33.3 4.2-48.1-.9-.9-1.8-1.9-2.7-2.7z"/><path d="m190.1 1188.7 6.8 13.1 35.8-18.5 9.6 18.5-93.3 48.2-18.1-35c-10.5-20.4-4.6-38.6 11.6-47 8.8-4.5 21.8-6.7 34.7 4.5l27-44.2 11 21.3zm-42 20.4 7.3 14.1 25.3-13.1-7.3-14.1c-5.3-10.3-13.2-13.8-21.2-9.6-8.2 4.2-9.4 12.4-4.1 22.7z"/><path d="m89.5 1020.1c-4.5 7.8-6.8 17.1-4.9 24.2 1.7 6.7 6.8 11.9 12.9 10.3 4.6-1.2 7.5-5 9.2-14.1l1.8-9.4c3.4-18.1 9.3-30 24.6-33.9s33.4 5.2 39.2 27.6c4 15.4 1 28.4-5.9 40.4l-18-7.3c5.8-9.5 7.6-20.2 5.7-27.9-2.2-8.7-8.4-12.9-14.7-11.2-7 1.8-9.3 9-11.3 19.9l-1.5 8c-2.9 15.3-10 26.3-22.7 29.6-17.9 4.6-32.7-8.6-37.4-26.6-3-11.8-.3-25.3 5.6-37.2z"/><path d="m43.6 812.4 18.6-.4.6 31.3 86.4-1.8.4 20.7-86.4 1.8.6 31.3-18.6.4z"/><path d="m133.5 661.3-66.6-15 4.5-19.9 68.5 15.4c19.9 4.5 32.8 21.1 27.1 46.4-5.7 25.5-24.4 34.6-44.3 30.2l-68.5-15.4 4.6-20.3 66.6 15c11.1 2.5 20.3-1.9 23-13.9 2.6-12.1-3.8-20-14.9-22.5z"/><path d="m113.7 520.3 10.5-20.6 80.2 14.2.1-.1-57.9-57.7 9.9-19.4 77.3 79.4-10.3 20.2z"/><path d="m249.9 313.2 69.7 34.5.1-.1-45.3-62.2 14.1-16 61.9 88.6-15.9 18.1-69.7-35 43.9 64.3-15.9 18.1-96-49.8 14.9-16.9 67.1 37.5.1-.1-43.2-64.7z"/><path d="m431.1 226.3 58.1 23.4-20.1 13.8-40.3-17.5 2.5 43.4-19.7 13.6-1.9-63.1-56.3-24.2 20-13.8 38.9 17.9-2.8-42.7 19.5-13.4z"/><path d="m520.6 115.7 23.4-8.6 37.8 28.6.7-.3 10-46.2 22.5-8.2-17 69 15.9 43.2-19.4 7.1-15.7-42.8z"/><path d="m702.7 80-2.5-18.4 82.5-11 2.4 17.7-48 75.7 57.1-7.6 2.4 18.3-83.7 11.1-2.3-17 48.6-76.4z"/><g fill="none" stroke="#000" stroke-miterlimit="10" stroke-width="8"><path d="m843.5 15.5v156"/><path d="m843.5 15.5v156"/><path d="m843.5 15.5v165.8"/><path d="m644 39.8 39.7 160.9"/><path d="m456.1 111.1 72.5 138.1"/><path d="m290.7 225.3 110.7 124.9"/><path d="m157.5 375.7 137 94.5"/><path d="m64.1 553.7 154.9 58.7"/><path d="m16.1 748.9 165.3 20"/><path d="m16.2 949.9 164.5-20.1"/><path d="m64.4 1145 155.4-59"/><path d="m157.9 1322.9 135.7-93.8"/><path d="m291.3 1473.3 109.2-123.5"/><path d="m456.7 1587.3 76.6-146.1"/><path d="m644.7 1658.5 39.4-160.2"/><path d="m844.3 1682.5-.2-163.8"/><path d="m1043.8 1658.1-39.6-159.8"/><path d="m1231.6 1586.7-76.8-146.1"/><path d="m1396.9 1472.3-109.1-122.9"/><path d="m1530 1321.7-134.7-92.7"/><path d="m1623.2 1143.6-153.4-57.9"/><path d="m1671.1 948.4-165.4-19.8"/><path d="m1670.8 747.4-162.3 20"/><path d="m1622.5 552.4-154.9 59"/><path d="m1528.8 374.5-134.6 93.2"/><path d="m1395.3 224.3-108.9 123.3"/><path d="m1229.7 110.4-77.8 148.9"/><path d="m1041.7 39.4-39.5 161.3"/></g></svg>