<svg enable-background="new 0 0 977.1 931.3" viewBox="0 0 977.1 931.3" xmlns="http://www.w3.org/2000/svg" xmlns:xlink="http://www.w3.org/1999/xlink"><clipPath id="a"><path d="m9.2 11.2h954.6v909.6h-954.6z"/></clipPath><path d="m9.2 11.2h954.6v909.6h-954.6z" fill="#fff" stroke="#000" stroke-miterlimit="10" stroke-width="8"/><path d="m100.2 278.2-.3 161.6 156 20.4 41.5-159.6-97.1-16.3z" fill="#fec64e"/><path d="m647.1 488-104.3 118.1 107.8 120.1 132.7-88.3-57.7-79.8z" fill="#fec64e"/><g clip-path="url(#a)"><path d="m99.9 282c56 0 112 5.6 166.4 16.8 53 10.8 105.1 27 154.9 48.1 48.9 20.7 96.1 46.3 140.2 76.1 43.7 29.5 84.8 63.4 122.2 100.8s71.3 78.5 100.8 122.2c29.8 44.1 55.4 91.3 76.1 140.2 21.1 49.8 37.3 101.9 48.1 154.9 11.1 54.4 16.8 110.4 16.8 166.4s-5.6 112-16.8 166.4c-10.8 53-27 105.1-48.1 154.9-20.7 48.9-46.3 96.1-76.1 140.2-29.5 43.7-63.4 84.8-100.8 122.2s-78.5 71.3-122.2 100.8c-44.1 29.8-91.3 55.4-140.2 76.1-49.8 21.1-101.9 37.3-154.9 48.1-54.4 11.1-110.4 16.8-166.4 16.8s-112-5.6-166.4-16.8c-53-10.8-105.1-27-154.9-48.1-48.9-20.7-96.1-46.3-140.2-76.1-43.7-29.5-84.8-63.4-122.2-100.8s-71.3-78.5-100.8-122.2c-29.8-44.1-55.4-91.3-76.1-140.2-21.1-49.8-37.3-101.9-48.1-154.9-11.1-54.4-16.8-110.4-16.8-166.4s5.6-112 16.8-166.4c10.8-53 27-105.1 48.1-154.9 20.7-48.9 46.3-96.1 76.1-140.2 29.5-43.7 63.4-84.8 100.8-122.2s78.5-71.3 122.2-100.8c44.1-29.8 91.3-55.4 140.2-76.1 49.8-21.1 101.9-37.3 154.9-48.1 54.4-11.2 110.4-16.8 166.4-16.8m0 1495.7c90.5 0 178.2-17.7 260.9-52.7 39.7-16.8 78-37.6 113.8-61.8 35.5-24 68.9-51.5 99.2-81.8s57.9-63.7 81.8-99.2c24.2-35.8 45-74.1 61.8-113.8 34.9-82.6 52.7-170.4 52.7-260.9s-17.7-178.2-52.7-260.9c-16.8-39.7-37.6-78-61.8-113.8-24-35.5-51.5-68.9-81.8-99.2s-63.7-57.9-99.2-81.8c-35.8-24.2-74.1-45-113.8-61.8-82.6-34.9-170.4-52.7-260.9-52.7s-178.2 17.8-260.8 52.7c-39.7 16.8-78 37.6-113.8 61.8-35.5 24-68.9 51.5-99.2 81.8s-57.9 63.7-81.8 99.2c-24.2 35.8-45 74.1-61.8 113.8-34.9 82.6-52.7 170.4-52.7 260.9s17.7 178.2 52.7 260.9c16.8 39.7 37.6 78 61.8 113.8 24 35.5 51.5 68.9 81.8 99.2s63.7 57.9 99.2 81.8c35.8 24.2 74.1 45 113.8 61.8 82.6 35 170.4 52.7 260.8 52.7m0-1503.7c-460.3 0-833.5 373.2-833.5 833.5s373.2 833.5 833.5 833.5 833.5-373.2 833.5-833.5-373.1-833.5-833.5-833.5zm0 1495.7c-365.7 0-662.2-296.5-662.2-662.2s296.5-662.2 662.2-662.2 662.2 296.5 662.2 662.2-296.5 662.2-662.2 662.2z"/><path d="m226.2 422.5-22.4-2.5-5.7-29.5-31.4-3.6-11.6 27.5-21.8-2.5 45.5-100.5 24.7 2.8zm-37.7-87.3h-.3l-14.6 34.6 21.3 2.4z"/><path d="m379.5 408.3-.1.3c9.8 8.7 13.7 19.5 9.7 31-5.6 15.8-21.8 24.2-42.7 16.8l-35.2-12.5 35.2-98.9 31.9 11.4c20.3 7.2 26 23.4 21.5 36.2-3 8.5-10 14.8-20.3 15.7zm-42.8 26 10.2 3.6c11.9 4.2 19.5.7 22.3-7.3 3-8.3-2.4-15-12.1-18.5l-11.2-4zm23.4-65.7-7.8 22 10 3.6c7.1 2.5 14.1 1 16.8-6.6s-2.2-13-9-15.5z"/><path d="m495.6 514.7c11.6 7.7 24.7 7.3 34.8-.9l19.1 12.7c-18.8 17.2-44.7 17.3-64.5 4.3-25.8-17-33.2-49.1-15.7-75.5s49.8-32.1 75.6-15.1c19.8 13.1 29.8 37 21.3 61l-19.1-12.7c3.6-12.5-1.1-24.7-12.8-32.4-16.5-10.9-35.8-5.7-46.9 11.1-11 16.7-8.3 36.5 8.2 47.5z"/><path d="m614.1 638.9-24.1-26.8 78.1-70.2 24.1 26.8c23 25.5 20.6 54.7-2.6 75.6s-52.6 20.1-75.5-5.4zm64.3-58.8-9.6-10.7-51.6 46.4 9.6 10.7c12.8 14.3 31 17.7 48.5 1.9 17.3-15.5 15.9-34 3.1-48.3z"/><path d="m811 776.4-27.1-50.5-21.7 11.6 15.8 29.5-15.7 8.4-15.8-29.4-23.5 12.6 27.1 50.5-15.7 8.4-36.9-68.9 92.5-49.6 36.9 68.9z"/><path d="m813.4 935.8-40.4 10.3-5.1-20.2 101.7-25.9 18.8 73.7-17.4 4.4-13.6-53.5-26.5 6.7 10 39.2-17.4 4.4z"/><path d="m-40.9 338.4-2.5-18.4 82.5-11 2.4 17.7-48 75.7 57.1-7.6 2.4 18.3-83.7 11.1-2.3-17 48.6-76.4z"/><g fill="none" stroke="#000" stroke-miterlimit="10" stroke-width="8"><path d="m99.9 274v156"/><path d="m99.9 274v156"/><path d="m99.9 274v165.8"/><path d="m878.9 810.8-154.9 59"/><path d="m785.2 633-134.6 93.2"/><path d="m651.7 482.8-108.9 123.3"/><path d="m486.1 368.9-77.8 148.8"/><path d="m298 297.9-39.4 161.2"/></g></g><path d="m9.2 11.2h954.6v909.6h-954.6z" fill="none" stroke="#000" stroke-miterlimit="10" stroke-width="8"/><path d="m565.9 130.8h4l24.8-30.4h18.9l-30.7 36.6 29.5 40.5h-18.9l-24-33.7h-3.5v33.7h-15.3v-77h15.3v30.3z"/><path d="m664.2 156.4h-37.5c.8 5.6 5.2 10.1 11.5 10.1 4.2 0 8.1-1.8 10.1-5.2l14.9 1.5c-4.5 10.8-14 15.8-25.2 15.8-15.1 0-26.4-11.1-26.4-26.5s11.1-26.5 26.2-26.5c13.9 0 26.4 9 26.4 30.1zm-37.9-9.5h22.5c-.8-5.1-5.1-9.2-11.1-9.2s-10.3 3.8-11.4 9.2z"/><path d="m687.2 177.4h-3.6l-17.3-50.4h16l10.7 35.9 10.8-35.9h15.5l-20.3 58.4c-2.5 7.4-6.5 11.3-15.7 11.3h-9.9v-12h7c2.9 0 4.6-1.1 5.6-4z"/><path d="m793.3 134.5h-49.2v-13.1h49.2zm0 22h-49.2v-13.1h49.2z"/><path d="m819.9 155.4v-3.4h15.6v3.3c0 5.5 2.4 10.8 9.7 10.8 7 0 10.1-5.2 10.1-12.2s-4.2-12.3-12.4-12.3c-2.3 0-6.5.3-8 .8v-13.6l17.6-15.1h-28.9v-13.2h46.2v14.6l-19.9 16c12.5.3 21.5 10.5 21.5 22.7 0 14.7-10.3 25.1-25.7 25.1-16.6-.1-25.8-9.9-25.8-23.5z"/><g stroke="#fec64e" stroke-linecap="round" stroke-miterlimit="10" stroke-width="12"><path d="m216.9 206s333.4 15.4 550 273.7" fill="none"/><path d="m709.9 476.5 57 3.1 2.9-53.5" fill="none"/><circle cx="221.8" cy="206" fill="#fff" r="22.9"/></g></svg>